<svg width="153" height="57" viewBox="0 0 153 57" fill="none" xmlns="http://www.w3.org/2000/svg">
<path d="M148.581 23.2594C148.007 19.8344 145.937 17.0268 143.153 15.3926C142.698 17.8266 141.523 20.1507 139.78 22.3764C137.348 25.4812 134.026 27.5636 130.982 29.9636C130.143 30.6251 129.295 31.2767 128.459 31.942C130.917 35.173 135.042 36.972 139.316 36.2555C145.453 35.2269 149.609 29.3967 148.581 23.2594Z" fill="#9A6874"/>
<path d="M129.384 32.0454C131.809 34.8687 135.514 36.2285 139.206 35.6088C142.001 35.1404 144.45 33.6075 146.1 31.2926C147.75 28.9778 148.401 26.1635 147.932 23.3679C147.462 20.5605 145.895 18.0851 143.585 16.4522C143.026 18.5779 141.922 20.7027 140.294 22.7808C138.386 25.2176 135.938 27.047 133.571 28.8163C132.849 29.3562 132.102 29.9145 131.386 30.4788C131.032 30.7581 130.676 31.036 130.32 31.3136C130.007 31.557 129.695 31.8007 129.384 32.0454ZM137.44 37.0679C133.746 37.0681 130.228 35.3527 127.935 32.3392L127.547 31.8287L128.049 31.4291C128.534 31.0427 129.024 30.6611 129.513 30.2794C129.867 30.0031 130.222 29.7267 130.574 29.4487C131.303 28.8741 132.057 28.3107 132.786 27.7658C135.084 26.0478 137.461 24.2716 139.262 21.9723C140.998 19.7556 142.09 17.5013 142.507 15.2721L142.678 14.3547L143.483 14.8272C146.547 16.626 148.64 19.66 149.226 23.1512C149.752 26.2921 149.021 29.4539 147.168 32.0541C145.315 34.6541 142.564 36.3759 139.423 36.9025C138.76 37.0135 138.097 37.0679 137.44 37.0679Z" fill="#C69AA4"/>
<path d="M103.414 15.7799C103.397 15.7017 103.381 15.623 103.365 15.544C99.6038 17.8917 97.4198 22.3533 98.1974 26.991C99.226 33.1281 105.056 37.2845 111.193 36.2557C114.075 35.7726 116.52 34.2312 118.196 32.0963C115.746 30.0996 113.146 28.2863 110.686 26.308C107.218 23.5196 104.391 20.2817 103.414 15.7799Z" fill="#9A6874"/>
<path d="M102.944 16.6275C99.7786 19.0044 98.1822 22.9322 98.8446 26.8825C99.313 29.6781 100.846 32.1263 103.161 33.7765C105.475 35.4268 108.29 36.0779 111.085 35.6086C113.486 35.2063 115.657 34 117.266 32.1879C116.151 31.2974 114.996 30.4296 113.874 29.5864C112.686 28.6928 111.456 27.7688 110.275 26.819C106.224 23.5616 103.936 20.3909 102.944 16.6275ZM109.309 37.0689C106.847 37.0691 104.449 36.3054 102.399 34.8443C99.7992 32.9909 98.0775 30.2402 97.5509 27.0992C96.749 22.3151 98.8951 17.561 103.018 14.9875L103.826 14.4837L104.009 15.4174C104.024 15.4922 104.039 15.5666 104.055 15.6405C104.873 19.4057 107.044 22.5379 111.097 25.7968C112.261 26.7331 113.482 27.6507 114.662 28.538C115.968 29.5197 117.319 30.5347 118.611 31.5879L119.11 31.9946L118.712 32.5012C116.87 34.8471 114.239 36.41 111.302 36.9023C110.637 37.0138 109.971 37.0689 109.309 37.0689Z" fill="#C69AA4"/>
<path d="M135.584 13.9948C138.296 13.5402 140.948 14.0987 143.152 15.3928C143.621 12.8867 143.327 10.2644 142.099 7.51174C139.093 0.772419 131.021 -0.67506 125.85 4.54399C124.842 5.56078 124.044 6.73791 123.216 7.97275C122.345 6.62118 121.469 5.35732 120.341 4.29578C117.877 1.97758 115.063 0.782581 111.632 1.61477C104.398 3.36965 102.331 10.297 103.365 15.5439C104.581 14.7849 105.962 14.2461 107.462 13.9948C113.599 12.966 119.429 17.1222 120.458 23.2596C121.004 26.5154 120.09 29.6844 118.196 32.0964C119.999 33.5658 121.721 35.135 123.245 36.9435C124.751 35.0169 126.573 33.4435 128.458 31.9421C127.387 30.5338 126.632 28.8539 126.319 26.991C125.29 20.8536 129.446 15.0236 135.584 13.9948Z" fill="#9A6874"/>
<path d="M119.095 31.9864C120.742 33.3578 122.079 34.6307 123.23 35.9239C124.564 34.3464 126.079 33.0199 127.563 31.8195C126.606 30.4071 125.956 28.788 125.673 27.0992C125.147 23.9583 125.877 20.7965 127.731 18.1965C129.584 15.5963 132.335 13.8745 135.476 13.3479L135.585 13.9947L135.476 13.3479C137.914 12.9395 140.424 13.3043 142.64 14.3759C142.872 12.2115 142.49 9.99671 141.501 7.77886C140.161 4.77422 137.675 2.73736 134.679 2.19027C131.679 1.6422 128.631 2.66866 126.316 5.00555C125.325 6.00512 124.53 7.19094 123.761 8.33775L123.206 9.16633L122.665 8.32791C121.917 7.16668 121.024 5.83872 119.892 4.77324C117.341 2.37258 114.689 1.5481 111.787 2.25208C105.653 3.74005 103.23 9.3811 103.863 14.5067C104.956 13.9426 106.127 13.5537 107.354 13.3479C110.496 12.8215 113.657 13.5524 116.257 15.4059C118.857 17.2593 120.579 20.01 121.106 23.1511C121.623 26.2414 120.892 29.4256 119.095 31.9864ZM123.265 37.9837L122.745 37.366C121.427 35.8031 119.851 34.2902 117.782 32.6047L117.283 32.1978L117.681 31.6912C119.528 29.3395 120.304 26.3059 119.812 23.3678C119.343 20.5724 117.811 18.124 115.496 16.4739C113.181 14.8236 110.366 14.1729 107.571 14.6415C106.191 14.8728 104.893 15.3635 103.713 16.1003L102.906 16.6037L102.722 15.6707C101.547 9.70981 104.177 2.74867 111.478 0.977402C114.845 0.160461 117.891 1.0897 120.791 3.81809C121.759 4.72947 122.549 5.78642 123.224 6.78993C123.853 5.87413 124.557 4.91768 125.384 4.08237C128.009 1.43333 131.483 0.273418 134.915 0.900017C138.342 1.52613 141.18 3.83858 142.699 7.24456C143.936 10.0174 144.305 12.7994 143.798 15.5133L143.626 16.4308L142.821 15.9583C140.675 14.6983 138.143 14.2308 135.693 14.6415C132.897 15.1102 130.449 16.6431 128.799 18.9578C127.149 21.2726 126.498 24.0869 126.967 26.8825C127.25 28.5732 127.946 30.1855 128.981 31.5451L129.369 32.0556L128.867 32.455C127.106 33.8577 125.268 35.4211 123.763 37.3471L123.265 37.9837Z" fill="#C69AA4"/>
<path d="M3.22637 37.0111H0.777344V23.4216H3.22637V37.0111Z" fill="#C69AA4"/>
<path d="M17.0884 37.0111H14.709L9.55195 28.3299C9.47227 28.1971 9.34292 27.9813 9.16372 27.6826C9.08405 27.55 8.96109 27.3409 8.79534 27.0555V37.0111H6.82422V23.4216H9.53211L14.291 31.426C14.3306 31.4924 14.6193 31.9801 15.1569 32.8895V23.4216H17.0884V37.0111Z" fill="#C69AA4"/>
<path d="M19.2637 33.7356L21.643 33.228C21.9283 34.5753 23.0234 35.2488 24.9283 35.2488C25.7979 35.2488 26.4666 35.0764 26.9344 34.7313C27.4024 34.3863 27.6364 33.9581 27.6364 33.4471C27.6364 33.0754 27.5301 32.7319 27.3177 32.4167C27.1052 32.1014 26.6507 31.8542 25.9538 31.675L23.3554 30.9981C22.4659 30.7657 21.8088 30.5018 21.3841 30.2067C20.9594 29.9111 20.6192 29.4947 20.3636 28.9571C20.1082 28.4193 19.9804 27.8454 19.9804 27.2348C19.9804 26.0202 20.4318 25.0462 21.3345 24.3128C22.237 23.5793 23.3918 23.2126 24.799 23.2126C25.9671 23.2126 27.0108 23.4682 27.93 23.9792C28.8493 24.4904 29.4349 25.2137 29.6872 26.1495L27.3575 26.7269C26.9991 25.6982 26.163 25.1839 24.8486 25.1839C24.0855 25.1839 23.503 25.3432 23.1016 25.6618C22.7 25.9803 22.4991 26.3853 22.4991 26.8765C22.4991 27.6529 23.1298 28.1972 24.3907 28.509L26.7004 29.0866C28.1008 29.4383 29.0401 29.9577 29.518 30.6446C29.9957 31.3315 30.2348 32.0898 30.2348 32.9193C30.2348 34.2534 29.7321 35.3038 28.7265 36.0704C27.721 36.837 26.4183 37.2201 24.8188 37.2201C23.4715 37.2201 22.2918 36.9381 21.2795 36.3742C20.2675 35.8099 19.5955 34.9303 19.2637 33.7356Z" fill="#C69AA4"/>
<path d="M37.6954 37.0111H35.067V25.5223H31.4531V23.4216H41.3092V25.5223H37.6954V37.0111Z" fill="#C69AA4"/>
<path d="M45.8631 37.0111H43.4141V23.4216H45.8631V37.0111Z" fill="#C69AA4"/>
<path d="M54.211 37.0111H51.5826V25.5223H47.9688V23.4216H57.8248V25.5223H54.211V37.0111Z" fill="#C69AA4"/>
<path d="M69.2586 23.4216V32.1527C69.2586 33.3341 69.1259 34.2434 68.8604 34.8806C68.595 35.5179 68.0822 36.0671 67.3223 36.5283C66.5622 36.9896 65.6348 37.2201 64.5396 37.2201C63.4312 37.2201 62.5203 37.0211 61.807 36.6227C61.0933 36.2245 60.5807 35.6787 60.2687 34.9852C59.9567 34.2916 59.8008 33.4072 59.8008 32.3319V23.4216H62.2996V32.1527C62.2996 33.3474 62.5502 34.1324 63.0513 34.5075C63.5524 34.8823 64.1349 35.0696 64.7985 35.0696C65.5617 35.0696 66.1724 34.869 66.6304 34.4675C67.0883 34.0658 67.3174 33.2943 67.3174 32.1527V23.4216H69.2586Z" fill="#C69AA4"/>
<path d="M77.4159 37.0111H74.7877V25.5223H71.1738V23.4216H81.0299V25.5223H77.4159V37.0111Z" fill="#C69AA4"/>
<path d="M87.8732 35.2489C88.7559 35.2489 89.5025 34.8841 90.1132 34.1537C90.7239 33.4237 91.0292 32.0996 91.0292 30.1816C91.0292 28.6219 90.7769 27.3992 90.2726 26.5129C89.7683 25.6271 88.9848 25.1839 87.9231 25.1839C85.8257 25.1839 84.777 26.8729 84.777 30.2513C84.777 31.8906 85.0442 33.1335 85.5785 33.9796C86.1128 34.8261 86.8778 35.2489 87.8732 35.2489ZM87.8534 37.22C86.0479 37.22 84.6427 36.5432 83.637 35.1892C82.6316 33.8352 82.1289 32.1628 82.1289 30.1715C82.1289 28.194 82.663 26.5394 83.7316 25.2088C84.8002 23.8779 86.2107 23.2126 87.9629 23.2126C89.7283 23.2126 91.1236 23.8779 92.1493 25.2088C93.1746 26.5394 93.6874 28.2036 93.6874 30.2015C93.6874 32.2988 93.1548 33.9929 92.0896 35.284C91.0243 36.5747 89.612 37.22 87.8534 37.22Z" fill="#C69AA4"/>
<path d="M11.6083 48.2583L8.2732 48.4671C8.22663 46.5493 7.47839 45.5902 6.02845 45.5902C4.36571 45.5902 3.53434 47.0669 3.53434 50.0202C3.53434 51.7262 3.76026 52.8824 4.21259 53.4898C4.66475 54.097 5.2966 54.4008 6.10813 54.4008C7.42461 54.4008 8.22942 53.5445 8.52207 51.8321L11.6083 52.0215C11.4093 53.6475 10.8035 54.8837 9.79133 55.7298C8.7793 56.5761 7.53987 56.9992 6.07304 56.9992C4.27439 56.9992 2.81265 56.3785 1.68749 55.1374C0.562662 53.8965 0 52.1808 0 49.9904C0 47.9397 0.5443 46.2604 1.63274 44.953C2.72134 43.6453 4.20783 42.9915 6.09288 42.9915C9.35835 42.9915 11.1967 44.7472 11.6083 48.2583Z" fill="#9A6874"/>
<path d="M17.2584 45.6207V49.0852H19.2096C19.8469 49.0852 20.3097 49.0403 20.5986 48.9507C20.8871 48.8612 21.1444 48.662 21.3701 48.3535C21.5957 48.0448 21.7087 47.6915 21.7087 47.2931C21.7087 46.9149 21.5957 46.5763 21.3701 46.2778C21.1444 45.9791 20.8988 45.7948 20.6334 45.7253C20.3679 45.6554 19.8702 45.6207 19.14 45.6207H17.2584ZM17.2584 51.4049V56.7908H14.0527V43.2015H20.0261C21.1278 43.2015 22.0123 43.3292 22.6792 43.5846C23.3463 43.8401 23.8988 44.3093 24.3369 44.9924C24.775 45.6756 24.994 46.435 24.994 47.2706C24.994 48.9024 24.2074 50.073 22.6345 50.7827L25.1433 56.7908H21.6259L19.5389 51.4049H17.2584Z" fill="#9A6874"/>
<path d="M31.2404 56.7908H28.0645V43.2015H31.2404V56.7908Z" fill="#9A6874"/>
<path d="M43.9667 46.1883L41.2586 47.0941C40.8943 46.0189 40.123 45.4814 38.9445 45.4814C37.6864 45.4814 37.0573 45.8896 37.0573 46.7059C37.0573 47.0311 37.175 47.3067 37.4103 47.5322C37.6456 47.7577 38.1774 47.954 39.006 48.1201C40.391 48.3998 41.405 48.6822 42.0482 48.9675C42.691 49.2526 43.2328 49.7123 43.6737 50.346C44.1145 50.9798 44.3351 51.6882 44.3351 52.471C44.3351 53.6988 43.8624 54.7604 42.9176 55.6563C41.9726 56.5521 40.5717 57 38.7152 57C37.3224 57 36.1371 56.6831 35.159 56.049C34.1809 55.4153 33.5361 54.4748 33.2246 53.2268L36.1714 52.5599C36.5025 53.8275 37.4233 54.4613 38.9334 54.4613C39.6621 54.4613 40.2051 54.3203 40.563 54.0382C40.9206 53.756 41.0994 53.4195 41.0994 53.0276C41.0994 52.6294 40.9371 52.3209 40.6122 52.1018C40.2874 51.8828 39.6611 51.677 38.7335 51.4842C37.0034 51.1255 35.7707 50.6358 35.0349 50.0154C34.2991 49.3949 33.9314 48.4873 33.9314 47.2926C33.9314 46.085 34.3706 45.0663 35.249 44.2367C36.1278 43.4073 37.3196 42.9923 38.8247 42.9923C41.4899 42.9923 43.2042 44.0578 43.9667 46.1883Z" fill="#9A6874"/>
<path d="M57.7748 56.7908L54.422 45.7104V56.7908H51.7539V43.2015H56.711L59.0962 51.3352L61.6052 43.2015H66.5777V56.7908H63.3721V45.7104L59.9538 56.7908H57.7748Z" fill="#9A6874"/>
<path d="M75.0888 45.5909C73.4196 45.5909 72.5851 47.0575 72.5851 49.9912C72.5851 52.9314 73.4196 54.4015 75.0888 54.4015C76.7049 54.4015 77.5132 52.9347 77.5132 50.001C77.5132 47.0608 76.7049 45.5909 75.0888 45.5909ZM74.9992 57C73.1691 57 71.7531 56.3129 70.7519 54.9391C69.7505 53.5652 69.25 51.9026 69.25 49.9515C69.25 47.9669 69.7572 46.3111 70.7717 44.9835C71.7862 43.656 73.2321 42.9922 75.1089 42.9922C77.0055 42.9922 78.436 43.7009 79.4009 45.1177C80.3657 46.5349 80.8482 48.156 80.8482 49.9812C80.8482 51.9525 80.3508 53.615 79.3563 54.9691C78.3613 56.3231 76.9092 57 74.9992 57Z" fill="#9A6874"/>
<path d="M93.9944 43.2015V56.7908H91.2784L85.9602 47.6116C85.9668 47.8441 85.9735 47.9966 85.98 48.0695C86.0064 48.3022 86.0199 48.4979 86.0199 48.6571V56.7908H83.541V43.2015H86.9721L91.595 51.2157C91.5553 50.8174 91.5353 50.5154 91.5353 50.3097V43.2015H93.9944Z" fill="#9A6874"/>
<path d="M106.765 43.2015V45.8896H103.4V56.7908H100.174V45.8896H96.7891V43.2015H106.765Z" fill="#9A6874"/>
<path d="M118.775 45.7899H112.304V48.5774H117.391V51.136H112.304V54.1027H118.775V56.7908H109.068V43.2015H118.775V45.7899Z" fill="#9A6874"/>
<path d="M124.967 56.7908H121.791V43.2015H124.967V56.7908Z" fill="#9A6874"/>
<path d="M131.512 45.6207V49.0852H133.463C134.101 49.0852 134.563 49.0403 134.853 48.9507C135.141 48.8612 135.398 48.662 135.624 48.3535C135.85 48.0448 135.962 47.6915 135.962 47.2931C135.962 46.9149 135.85 46.5763 135.624 46.2778C135.398 45.9791 135.153 45.7948 134.887 45.7253C134.622 45.6554 134.124 45.6207 133.394 45.6207H131.512ZM131.512 51.4049V56.7908H128.307V43.2015H134.28C135.382 43.2015 136.266 43.3292 136.933 43.5846C137.6 43.8401 138.153 44.3093 138.591 44.9924C139.029 45.6756 139.248 46.435 139.248 47.2706C139.248 48.9024 138.461 50.073 136.888 50.7827L139.397 56.7908H135.88L133.793 51.4049H131.512Z" fill="#9A6874"/>
<path d="M147.241 45.5909C145.572 45.5909 144.737 47.0575 144.737 49.9912C144.737 52.9314 145.572 54.4015 147.241 54.4015C148.857 54.4015 149.666 52.9347 149.666 50.001C149.666 47.0608 148.857 45.5909 147.241 45.5909ZM147.152 57C145.321 57 143.906 56.3129 142.904 54.9391C141.903 53.5652 141.402 51.9026 141.402 49.9515C141.402 47.9669 141.909 46.3111 142.924 44.9835C143.939 43.656 145.384 42.9922 147.261 42.9922C149.158 42.9922 150.589 43.7009 151.554 45.1177C152.518 46.5349 153.001 48.156 153.001 49.9812C153.001 51.9525 152.503 53.615 151.508 54.9691C150.514 56.3231 149.062 57 147.152 57Z" fill="#9A6874"/>
</svg>
