<svg width="152" height="16" viewBox="0 0 152 16" fill="none" xmlns="http://www.w3.org/2000/svg">
<path d="M99.0075 0.135254C103.213 0.135254 106.613 3.49331 106.603 7.63689C106.593 12.0161 103.272 15.3644 98.9485 15.3545C94.7626 15.3447 91.4316 11.9474 91.4414 7.67616C91.4414 3.51295 94.8314 0.135254 99.0075 0.135254ZM104.923 7.84309C104.923 4.46539 102.27 1.73573 98.9977 1.73573C95.814 1.73573 93.0725 4.54393 93.0725 7.78417C93.0725 10.9655 95.8238 13.7344 98.9977 13.7541C102.191 13.7639 104.923 11.0342 104.923 7.84309Z" fill="#9A6874"/>
<path d="M43.8237 0.135383C45.4057 0.0470128 47.2825 0.105926 49.002 1.25474C51.5568 2.9534 52.9619 6.19364 52.3625 9.25713C51.7828 12.193 49.1985 14.8932 46.3195 15.2466C44.482 15.4725 42.5955 15.3252 40.7383 15.3448C40.1389 15.3547 40.1488 14.9324 40.1488 14.5102C40.1389 14.0193 40.3453 13.764 40.8562 13.764C42.1729 13.7738 43.4994 13.7738 44.8161 13.764C47.5576 13.7345 49.8569 12.0261 50.6724 9.41423C51.8024 5.8107 48.9922 1.84387 45.2092 1.73586C43.8335 1.69659 42.4579 1.71622 41.0822 1.71622C40.532 1.71622 40.1488 1.62785 40.1488 0.920894C40.1488 0.243391 40.4829 0.105925 41.0626 0.125563C41.8585 0.15502 42.6642 0.135383 43.8237 0.135383Z" fill="#9A6874"/>
<path d="M17.6976 15.3935H13.2464C12.8632 15.3935 12.5586 15.0891 12.5586 14.7062V14.3821C12.5586 13.9992 12.8632 13.6948 13.2464 13.6948H17.6976C18.0808 13.6948 18.3854 13.9992 18.3854 14.3821V14.7062C18.3854 15.0891 18.0808 15.3935 17.6976 15.3935Z" fill="#9A6874"/>
<path d="M19.4073 8.57905H13.2464C12.8632 8.57905 12.5586 8.27466 12.5586 7.89172V7.56769C12.5586 7.18476 12.8632 6.88037 13.2464 6.88037H19.4073C19.7905 6.88037 20.0952 7.18476 20.0952 7.56769V7.89172C20.0952 8.26484 19.7905 8.57905 19.4073 8.57905Z" fill="#9A6874"/>
<path d="M21.6555 1.75482H13.2542C12.871 1.75482 12.5664 1.45043 12.5664 1.06749V0.743473C12.5664 0.360537 12.871 0.0561523 13.2542 0.0561523H21.6555C22.0387 0.0561523 22.3433 0.360537 22.3433 0.743473V1.06749C22.3433 1.45043 22.0289 1.75482 21.6555 1.75482Z" fill="#9A6874"/>
<path d="M8.97116 13.6849H1.69008V1.15595C1.69008 0.684639 1.30686 0.311523 0.845039 0.311523C0.37339 0.311523 0 0.694458 0 1.15595V14.5391C0 15.0104 0.383216 15.3835 0.845039 15.3835C0.894169 15.3835 0.943299 15.3737 0.992429 15.3737H8.98099C9.45264 15.3737 9.82603 14.9908 9.82603 14.5293C9.82603 14.0678 9.44281 13.6849 8.97116 13.6849Z" fill="#9A6874"/>
<path d="M38.4679 14.1465L31.6585 0.606231C31.5897 0.390215 31.4423 0.193836 31.2163 0.0858277C30.8625 -0.0909124 30.44 0.0170966 30.1944 0.301845L30.1846 0.311664C30.1747 0.321483 30.1649 0.331301 30.1551 0.34112C30.1059 0.400033 30.0765 0.468765 30.047 0.537497L23.4046 14.1858C23.1982 14.608 23.3751 15.1186 23.7976 15.3248C24.2202 15.5309 24.7311 15.3542 24.9375 14.932L30.8527 2.7762L36.9547 14.9025C37.161 15.3248 37.672 15.4917 38.0945 15.2757C38.5072 15.0793 38.6742 14.5687 38.4679 14.1465Z" fill="#9A6874"/>
<path d="M73.7925 7.02734H70.265C69.7933 7.02734 69.4199 7.41028 69.4199 7.87177C69.4199 8.34308 69.8031 8.71619 70.265 8.71619H72.9376V14.5977C72.9376 15.069 73.3208 15.4421 73.7827 15.4421C74.2543 15.4421 74.6277 15.0592 74.6277 14.5977V7.87177C74.6375 7.41028 74.2641 7.02734 73.7925 7.02734Z" fill="#9A6874"/>
<path d="M69.7844 1.77464C70.5115 1.82374 71.2387 2.06921 71.9461 2.36378C71.9953 2.40305 72.0542 2.44233 72.1132 2.47179L73.3414 3.09038C73.7639 3.30639 74.2749 3.13947 74.4812 2.71726C74.6974 2.29505 74.5304 1.78446 74.1079 1.57827L72.8796 0.959675C72.8599 0.949856 72.8501 0.949858 72.8305 0.940039C71.7791 0.390181 70.6491 0.105432 69.411 0.134889C64.9598 0.115251 61.4912 3.78752 61.7369 8.23548C61.7369 8.2453 61.7369 8.26493 61.7369 8.27475V9.67885C61.7369 10.1207 62.1005 10.484 62.5426 10.484C62.9848 10.484 63.3484 10.1207 63.3484 9.67885V7.75435C63.3484 7.71507 63.3484 7.6758 63.3385 7.64634C63.5154 4.03299 66.1389 1.54881 69.7844 1.77464Z" fill="#9A6874"/>
<path d="M88.7873 15.315C89.1705 15.1088 89.3179 14.6375 89.1214 14.2643L88.4336 12.9682C88.2665 12.6442 88.1093 12.3202 87.9423 12.006C87.4117 10.9652 86.881 9.91457 86.2817 8.7363C86.6649 8.58902 86.9498 8.47119 87.2446 8.36319C89.2884 7.59731 90.2809 5.83973 89.9271 3.65012C89.6225 1.74525 88.3844 0.439339 86.547 0.184048C86.5273 0.184048 86.5175 0.184047 86.4978 0.174229C86.3308 0.154591 86.1637 0.134954 85.9869 0.134954C83.4616 0.0760403 80.9363 0.125134 78.411 0.125134C78.244 0.125134 78.1162 0.144773 78.0081 0.193868C77.6151 0.272419 77.3203 0.61608 77.3203 1.02847C77.3203 1.49978 77.7035 1.8729 78.1654 1.8729C78.1654 1.8729 86.4782 1.8729 86.5077 1.86308C87.3429 2.09873 87.9226 2.63877 88.1781 3.41446C88.8266 5.36842 87.6868 6.9689 85.5349 7.018C84.9748 7.02782 84.4049 7.03763 83.8448 7.04745H78.1654C77.6937 7.04745 77.3203 7.43039 77.3203 7.89188C77.3203 8.36319 77.7035 8.7363 78.1654 8.7363H84.1592C84.3951 8.83449 84.5719 9.02105 84.7291 9.32544C85.6037 11.0339 87.5885 14.6865 87.5983 14.6865L87.7556 14.9811C87.9423 15.3739 88.4139 15.5212 88.7873 15.315Z" fill="#9A6874"/>
<path d="M113.304 1.46024L120.113 15.0005C120.182 15.2165 120.329 15.4129 120.555 15.5209C120.909 15.6976 121.331 15.5896 121.577 15.3049L121.587 15.2951C121.597 15.2852 121.607 15.2754 121.616 15.2656C121.665 15.2067 121.695 15.138 121.724 15.0692L128.367 1.42096C128.573 0.998751 128.396 0.488168 127.974 0.281971C127.551 0.0757741 127.04 0.252514 126.834 0.674727L120.919 12.8305L114.817 0.704185C114.61 0.281973 114.099 0.11505 113.677 0.331065C113.254 0.537262 113.087 1.03803 113.304 1.46024Z" fill="#9A6874"/>
<path d="M137.624 0.115234H132.24C131.768 0.115234 131.395 0.498169 131.395 0.959656V14.5294C131.395 15.0007 131.778 15.3738 132.24 15.3738C132.711 15.3738 133.085 14.9909 133.085 14.5294V1.8139H137.614C138.086 1.8139 138.459 1.43096 138.459 0.969476C138.469 0.498169 138.086 0.115234 137.624 0.115234Z" fill="#9A6874"/>
<path d="M108.883 0.773457L115.663 14.5199C115.83 14.8636 115.692 15.276 115.349 15.4429L115.054 15.5902C114.71 15.7571 114.297 15.6196 114.13 15.276L107.35 1.52951C107.183 1.18585 107.321 0.773459 107.665 0.606538L107.959 0.459255C108.303 0.292333 108.716 0.439615 108.883 0.773457Z" fill="#9A6874"/>
<path d="M151.076 0.115234C150.604 0.115234 150.231 0.498169 150.231 0.959656V6.93936H141.505C141.034 6.93936 140.66 7.3223 140.66 7.78378C140.66 7.81324 140.66 7.83288 140.66 7.86233C140.65 7.90161 140.65 7.94089 140.65 7.98998V14.7257C140.65 15.197 141.034 15.5702 141.495 15.5702C141.957 15.5702 142.34 15.1872 142.34 14.7257V8.64785H150.211V14.5294C150.211 15.0007 150.594 15.3738 151.056 15.3738C151.528 15.3738 151.901 14.9909 151.901 14.5294V7.80342V0.969476C151.921 0.498169 151.538 0.115234 151.076 0.115234Z" fill="#9A6874"/>
</svg>
