<svg width="99" height="71" viewBox="0 0 99 71" fill="none" xmlns="http://www.w3.org/2000/svg">
<path d="M96.7426 42.6464C95.6576 36.1742 91.7463 30.8688 86.4861 27.7806C85.6258 32.38 83.406 36.7718 80.1115 40.9778C75.5162 46.8449 69.2395 50.7801 63.4867 55.3153C61.9011 56.5654 60.2978 57.7966 58.7188 59.0538C63.3637 65.1594 71.1581 68.5589 79.2351 67.2051C90.833 65.2614 98.6866 54.244 96.7426 42.6464Z" fill="#DECBD1"/>
<path d="M60.4711 59.2488C65.0544 64.584 72.0557 67.1535 79.0319 65.9825C84.3147 65.0973 88.9411 62.2007 92.0596 57.8262C95.1778 53.452 96.4074 48.1339 95.522 42.8511C94.6328 37.5459 91.6726 32.8682 87.3065 29.7825C86.2513 33.7994 84.1648 37.8145 81.089 41.7416C77.4822 46.3463 72.8571 49.8034 68.3845 53.1469C67.0195 54.1671 65.608 55.222 64.2557 56.2883C63.5859 56.8162 62.9127 57.3413 62.2394 57.8658C61.6496 58.3259 61.0591 58.7863 60.4711 59.2488ZM75.694 68.7397C68.7138 68.7401 62.066 65.4985 57.7339 59.804L57 58.8393L57.9483 58.0843C58.8653 57.354 59.7907 56.6328 60.7155 55.9116C61.385 55.3896 62.0545 54.8672 62.7212 54.3418C64.0986 53.2559 65.5231 52.1914 66.9005 51.1616C71.2434 47.9152 75.7343 44.5587 79.1375 40.2137C82.4187 36.0248 84.4817 31.7649 85.2695 27.5525L85.5939 25.8188L87.1151 26.7117C92.905 30.1109 96.8603 35.8442 97.9664 42.4415C98.9611 48.3768 97.5803 54.3517 94.078 59.2652C90.5753 64.1785 85.3774 67.4321 79.4415 68.4272C78.1898 68.6369 76.9361 68.7397 75.694 68.7397Z" fill="#C69AA4"/>
<path d="M11.3932 28.512C11.361 28.3642 11.3307 28.2155 11.3012 28.0662C4.19333 32.5026 0.0663935 40.9337 1.53581 49.6975C3.47953 61.2948 14.4966 69.149 26.0942 67.205C31.5393 66.292 36.1592 63.3792 39.3273 59.3449C34.6978 55.5718 29.784 52.1453 25.1344 48.4069C18.5817 43.1377 13.24 37.019 11.3932 28.512Z" fill="#DECBD1"/>
<path d="M10.5044 30.1143C4.52356 34.6058 1.50697 42.0282 2.75859 49.493C3.6437 54.7758 6.5404 59.4021 10.9146 62.5206C15.2887 65.6392 20.6078 66.8694 25.89 65.9827C30.4256 65.2225 34.5293 62.9429 37.5691 59.5186C35.4618 57.8358 33.2801 56.1959 31.1604 54.6026C28.9137 52.9139 26.5908 51.1678 24.3586 49.3731C16.7039 43.2175 12.3806 37.2259 10.5044 30.1143ZM22.5335 68.7422C17.8809 68.7425 13.349 67.2994 9.47612 64.5384C4.56259 61.0361 1.309 55.8381 0.313902 49.9025C-1.20136 40.8621 2.85401 31.8783 10.6456 27.0153L12.1711 26.0632L12.5178 27.8276C12.5457 27.9688 12.5745 28.1095 12.6049 28.2492C14.1496 35.3642 18.2536 41.2831 25.9117 47.4414C28.1122 49.2107 30.4187 50.9447 32.6494 52.6214C35.1173 54.4765 37.6695 56.3945 40.1107 58.3847L41.0541 59.1534L40.3025 60.1107C36.8212 64.5437 31.8485 67.4971 26.2996 68.4274C25.043 68.6381 23.7833 68.7422 22.5335 68.7422Z" fill="#C69AA4"/>
<path d="M72.1859 25.1391C77.311 24.28 82.3225 25.3355 86.4878 27.7808C87.3736 23.0451 86.8178 18.0897 84.4979 12.8881C78.8176 0.152855 63.5634 -2.58243 53.7908 7.27996C51.8871 9.20138 50.3786 11.4258 48.8144 13.7593C47.1684 11.2052 45.5122 8.81691 43.3807 6.81091C38.7255 2.43024 33.4071 0.172066 26.9244 1.74464C13.2548 5.06081 9.3472 18.1514 11.3024 28.0664C13.6005 26.632 16.21 25.614 19.0441 25.1391C30.6418 23.195 41.6588 31.0489 43.6025 42.6466C44.6339 48.799 42.9076 54.7876 39.3281 59.3454C42.7357 62.1222 45.9896 65.0874 48.8699 68.5049C51.7154 64.8643 55.1571 61.8911 58.7205 59.0539C56.6959 56.3927 55.2686 53.2181 54.6784 49.6978C52.7344 38.1001 60.588 27.0831 72.1859 25.1391Z" fill="#DECBD1"/>
<path d="M41.0259 59.1377C44.1376 61.7292 46.6644 64.1345 48.8404 66.5783C51.3616 63.5973 54.2246 61.0907 57.0289 58.8223C55.2194 56.1533 53.9916 53.0936 53.4566 49.9023C52.4618 43.9671 53.8426 37.9921 57.3452 33.0789C60.8476 28.1654 66.0459 24.9118 71.9814 23.9167L72.1862 25.1389L71.9814 23.9167C76.5886 23.1449 81.3305 23.8343 85.5188 25.8592C85.9571 21.7691 85.2359 17.5839 83.3665 13.3929C80.8342 7.71503 76.1356 3.86599 70.4755 2.83216C64.8066 1.79648 59.047 3.73618 54.6716 8.15216C52.7995 10.0411 51.2969 12.2819 49.8439 14.449L48.794 16.0148L47.7728 14.4304C46.3589 12.236 44.6714 9.7266 42.5318 7.71317C37.7113 3.17667 32.7004 1.61865 27.2172 2.94897C15.6258 5.76077 11.0465 16.4206 12.2433 26.1064C14.3085 25.0403 16.5199 24.3055 18.8397 23.9167C24.7759 22.9219 30.7502 24.303 35.6631 27.8057C40.5767 31.308 43.8302 36.506 44.8253 42.4416C45.804 48.2814 44.422 54.2985 41.0259 59.1377ZM48.9064 70.4707L47.9228 69.3034C45.4338 66.35 42.4541 63.4911 38.5456 60.3059L37.6022 59.537L38.3541 58.5797C41.8438 54.1358 43.3116 48.4032 42.3807 42.8511C41.4955 37.5686 38.5988 32.942 34.2247 29.8238C29.8502 26.7052 24.5311 25.4756 19.2493 26.3611C16.6422 26.7982 14.1892 27.7254 11.9589 29.1177L10.4343 30.0691L10.0867 28.306C7.86572 17.0418 12.8359 3.88737 26.6326 0.540222C32.9954 -1.00355 38.7516 0.752434 44.2305 5.90824C46.0602 7.63046 47.5523 9.62777 48.8293 11.5241C50.0171 9.79352 51.3468 7.98611 52.911 6.40765C57.8713 1.40179 64.4358 -0.790092 70.9207 0.39399C77.3978 1.57714 82.7593 5.94696 85.6303 12.3832C87.9672 17.623 88.6655 22.8801 87.7063 28.0086L87.3819 29.7423L85.8608 28.8494C81.8051 26.4686 77.0217 25.585 72.391 26.3611C67.1082 27.2468 62.4818 30.1435 59.3633 34.5176C56.2451 38.8918 55.0155 44.2099 55.9012 49.4928C56.4363 52.6878 57.7526 55.7344 59.7072 58.3037L60.4411 59.2684L59.4925 60.0231C56.164 62.6738 52.6913 65.6281 49.8467 69.2677L48.9064 70.4707Z" fill="#C69AA4"/>
</svg>
