<svg width="27" height="20" viewBox="0 0 27 20" fill="none" xmlns="http://www.w3.org/2000/svg">
<path d="M2.025 0C0.91125 0 0 0.91125 0 2.025C0 3.13875 0.91125 4.05 2.025 4.05H24.975C26.0888 4.05 27 3.13875 27 2.025C27 0.91125 26.0888 0 24.975 0H2.025ZM2.025 7.7625C0.91125 7.7625 0 8.67375 0 9.7875C0 10.9012 0.91125 11.8125 2.025 11.8125H24.975C26.0888 11.8125 27 10.9012 27 9.7875C27 8.67375 26.0888 7.7625 24.975 7.7625H2.025ZM2.025 15.525C0.91125 15.525 0 16.4363 0 17.55C0 18.6637 0.91125 19.575 2.025 19.575H24.975C26.0888 19.575 27 18.6637 27 17.55C27 16.4363 26.0888 15.525 24.975 15.525H2.025Z" fill="#7A4A56"/>
</svg>
